<svg width="187" height="97" viewBox="0 0 187 97" fill="none" xmlns="http://www.w3.org/2000/svg">
<path d="M93 26.7106L70.5 39.6361V13.7894L93 0.863865V26.7106ZM94 0.863866L116.5 13.7894V39.6361L94 26.7106V0.863866ZM71.0038 40.5L93.5 27.5766L115.996 40.5L93.5 53.4234L71.0038 40.5Z" fill="#303030" stroke="white"/>
<path d="M10.17 56.68H34.29V58.3H10.17C9.48 58.3 8.82 58.435 8.19 58.705C7.56 58.945 7.02 59.29 6.57 59.74C6.12 60.16 5.76 60.67 5.49 61.27C5.22 61.87 5.085 62.5 5.085 63.16V79H3.375V63.16C3.375 61.39 4.035 59.875 5.355 58.615C6.705 57.325 8.31 56.68 10.17 56.68ZM11.43 69.01V67.39H34.29V69.01H11.43ZM64.202 66.085H65.867V75.085C65.867 76.165 65.492 77.095 64.742 77.875C64.022 78.625 63.137 79 62.087 79H44.987C43.937 79 43.037 78.625 42.287 77.875C41.567 77.095 41.207 76.165 41.207 75.085V66.085H42.917V75.085C42.917 75.505 43.007 75.895 43.187 76.255C43.367 76.585 43.607 76.855 43.907 77.065C44.237 77.275 44.597 77.38 44.987 77.38H62.087C62.477 77.38 62.822 77.275 63.122 77.065C63.452 76.855 63.707 76.585 63.887 76.255C64.097 75.895 64.202 75.505 64.202 75.085V66.085ZM89.5303 77.38V79H76.4803C75.6703 79 74.9953 78.55 74.4553 77.65C74.0353 76.93 73.8253 76.075 73.8253 75.085V59.74H75.5353V75.085C75.5353 75.715 75.6403 76.255 75.8503 76.705C76.0903 77.155 76.3003 77.38 76.4803 77.38H89.5303ZM80.3053 67.705V66.085H88.1803V67.705H80.3053ZM118.931 66.085H120.596V75.085C120.596 76.165 120.221 77.095 119.471 77.875C118.751 78.625 117.866 79 116.816 79H99.7165C98.6665 79 97.7665 78.625 97.0165 77.875C96.2965 77.095 95.9365 76.165 95.9365 75.085V66.085H97.6465V75.085C97.6465 75.505 97.7365 75.895 97.9165 76.255C98.0965 76.585 98.3365 76.855 98.6365 77.065C98.9665 77.275 99.3265 77.38 99.7165 77.38H116.816C117.206 77.38 117.551 77.275 117.851 77.065C118.181 76.855 118.436 76.585 118.616 76.255C118.826 75.895 118.931 75.505 118.931 75.085V66.085ZM132.38 66.085H153.17V67.705H132.38C131.84 67.705 131.36 67.825 130.94 68.065C130.52 68.305 130.31 68.59 130.31 68.92V79H128.6V68.92C128.6 68.08 129.005 67.375 129.815 66.805C130.535 66.325 131.39 66.085 132.38 66.085ZM183.803 68.92V76.21C183.803 77.02 183.398 77.71 182.588 78.28C181.868 78.76 181.013 79 180.023 79H162.923C161.933 79 161.078 78.76 160.358 78.28C159.548 77.71 159.143 77.02 159.143 76.21V72.97C159.143 72.13 159.548 71.44 160.358 70.9C161.078 70.39 161.933 70.135 162.923 70.135L177.323 70.18V71.8H162.923C162.293 71.8 161.768 71.935 161.348 72.205C160.988 72.445 160.808 72.7 160.808 72.97L160.853 76.21C160.853 76.51 161.063 76.78 161.483 77.02C161.903 77.26 162.383 77.38 162.923 77.38H180.023C180.593 77.38 181.088 77.26 181.508 77.02C181.928 76.78 182.138 76.51 182.138 76.21V68.92C182.138 68.71 182.033 68.515 181.823 68.335C181.643 68.155 181.388 68.005 181.058 67.885C180.728 67.765 180.383 67.705 180.023 67.705H159.233V66.085H180.023C181.013 66.085 181.868 66.34 182.588 66.85C183.398 67.39 183.803 68.08 183.803 68.92Z" fill="#303030"/>
<path d="M61.37 91.7C61.37 91.78 61.34 91.85 61.28 91.91C61.22 91.97 61.15 92 61.07 92C60.9833 92 60.91 91.97 60.85 91.91C60.7967 91.85 60.77 91.78 60.77 91.7V87.1C60.77 87.02 60.7967 86.95 60.85 86.89C60.91 86.83 60.9833 86.8 61.07 86.8C61.1567 86.8 61.2267 86.83 61.28 86.89C61.34 86.95 61.37 87.02 61.37 87.1V91.7ZM61.07 86.13C60.93 86.13 60.8233 86.1 60.75 86.04C60.6833 85.9733 60.65 85.88 60.65 85.76V85.66C60.65 85.54 60.6867 85.45 60.76 85.39C60.84 85.3233 60.9467 85.29 61.08 85.29C61.2067 85.29 61.3033 85.3233 61.37 85.39C61.4433 85.45 61.48 85.54 61.48 85.66V85.76C61.48 85.88 61.4433 85.9733 61.37 86.04C61.3033 86.1 61.2033 86.13 61.07 86.13ZM65.3387 86.77C65.7787 86.77 66.1287 86.86 66.3887 87.04C66.6553 87.2133 66.8453 87.4533 66.9587 87.76C67.0787 88.06 67.1387 88.3933 67.1387 88.76V91.7C67.1387 91.78 67.1087 91.85 67.0487 91.91C66.9887 91.97 66.9187 92 66.8387 92C66.7453 92 66.672 91.97 66.6187 91.91C66.5653 91.85 66.5387 91.78 66.5387 91.7V88.79C66.5387 88.5233 66.4953 88.28 66.4087 88.06C66.322 87.84 66.1787 87.6633 65.9787 87.53C65.7853 87.3967 65.5287 87.33 65.2087 87.33C64.922 87.33 64.6487 87.3967 64.3887 87.53C64.1353 87.6633 63.9287 87.84 63.7687 88.06C63.6087 88.28 63.5287 88.5233 63.5287 88.79V91.7C63.5287 91.78 63.4987 91.85 63.4387 91.91C63.3787 91.97 63.3087 92 63.2287 92C63.1353 92 63.062 91.97 63.0087 91.91C62.9553 91.85 62.9287 91.78 62.9287 91.7V87.22C62.9287 87.14 62.9553 87.07 63.0087 87.01C63.0687 86.95 63.142 86.92 63.2287 86.92C63.3153 86.92 63.3853 86.95 63.4387 87.01C63.4987 87.07 63.5287 87.14 63.5287 87.22V88.06L63.2987 88.42C63.312 88.2067 63.3787 88.0033 63.4987 87.81C63.6253 87.61 63.7853 87.4333 63.9787 87.28C64.172 87.12 64.3853 86.9967 64.6187 86.91C64.8587 86.8167 65.0987 86.77 65.3387 86.77ZM68.3799 86.91H70.7099C70.7899 86.91 70.8566 86.94 70.9099 87C70.9633 87.0533 70.9899 87.12 70.9899 87.2C70.9899 87.2733 70.9633 87.3367 70.9099 87.39C70.8566 87.4433 70.7899 87.47 70.7099 87.47H68.3799C68.2999 87.47 68.2299 87.4433 68.1699 87.39C68.1166 87.33 68.0899 87.2633 68.0899 87.19C68.0899 87.11 68.1166 87.0433 68.1699 86.99C68.2299 86.9367 68.2999 86.91 68.3799 86.91ZM69.4099 85.5C69.4966 85.5 69.5666 85.53 69.6199 85.59C69.6799 85.65 69.7099 85.72 69.7099 85.8V90.82C69.7099 91.0067 69.7333 91.1467 69.7799 91.24C69.8333 91.3333 69.8999 91.3967 69.9799 91.43C70.0599 91.4567 70.1399 91.47 70.2199 91.47C70.2733 91.47 70.3199 91.4633 70.3599 91.45C70.4066 91.43 70.4566 91.42 70.5099 91.42C70.5699 91.42 70.6199 91.4433 70.6599 91.49C70.7066 91.5367 70.7299 91.5967 70.7299 91.67C70.7299 91.7633 70.6766 91.8433 70.5699 91.91C70.4633 91.97 70.3366 92 70.1899 92C70.1299 92 70.0399 91.9967 69.9199 91.99C69.7999 91.9767 69.6766 91.94 69.5499 91.88C69.4233 91.8133 69.3166 91.7 69.2299 91.54C69.1499 91.38 69.1099 91.15 69.1099 90.85V85.8C69.1099 85.72 69.1366 85.65 69.1899 85.59C69.2499 85.53 69.3233 85.5 69.4099 85.5ZM74.3598 92.1C73.8464 92.1 73.3931 91.99 72.9998 91.77C72.6064 91.55 72.2998 91.2433 72.0798 90.85C71.8598 90.4567 71.7498 89.9967 71.7498 89.47C71.7498 88.9033 71.8598 88.42 72.0798 88.02C72.3064 87.62 72.5964 87.3133 72.9498 87.1C73.3098 86.88 73.6898 86.77 74.0898 86.77C74.3831 86.77 74.6664 86.8233 74.9398 86.93C75.2198 87.03 75.4664 87.1833 75.6798 87.39C75.8998 87.59 76.0731 87.8367 76.1998 88.13C76.3331 88.4233 76.4064 88.7633 76.4198 89.15C76.4131 89.23 76.3798 89.3 76.3198 89.36C76.2598 89.4133 76.1898 89.44 76.1098 89.44H72.0998L71.9798 88.9H75.9198L75.7898 89.02V88.82C75.7631 88.5067 75.6631 88.24 75.4898 88.02C75.3164 87.8 75.1064 87.6333 74.8598 87.52C74.6131 87.4067 74.3564 87.35 74.0898 87.35C73.8898 87.35 73.6831 87.39 73.4698 87.47C73.2631 87.55 73.0731 87.6767 72.8998 87.85C72.7331 88.0167 72.5964 88.2333 72.4898 88.5C72.3831 88.76 72.3298 89.07 72.3298 89.43C72.3298 89.8233 72.4098 90.18 72.5698 90.5C72.7298 90.82 72.9598 91.0733 73.2598 91.26C73.5664 91.4467 73.9298 91.54 74.3498 91.54C74.5831 91.54 74.7931 91.5067 74.9798 91.44C75.1664 91.3733 75.3298 91.2867 75.4698 91.18C75.6098 91.0667 75.7264 90.95 75.8198 90.83C75.8931 90.77 75.9664 90.74 76.0398 90.74C76.1064 90.74 76.1631 90.7667 76.2098 90.82C76.2631 90.8733 76.2898 90.9333 76.2898 91C76.2898 91.08 76.2564 91.15 76.1898 91.21C75.9898 91.45 75.7298 91.66 75.4098 91.84C75.0898 92.0133 74.7398 92.1 74.3598 92.1ZM78.0041 92C77.9107 92 77.8374 91.97 77.7841 91.91C77.7307 91.85 77.7041 91.78 77.7041 91.7V87.22C77.7041 87.14 77.7307 87.07 77.7841 87.01C77.8441 86.95 77.9174 86.92 78.0041 86.92C78.0907 86.92 78.1607 86.95 78.2141 87.01C78.2741 87.07 78.3041 87.14 78.3041 87.22V88.72L78.1541 88.75C78.1741 88.5167 78.2307 88.2867 78.3241 88.06C78.4241 87.8267 78.5574 87.6133 78.7241 87.42C78.8907 87.2267 79.0874 87.07 79.3141 86.95C79.5474 86.83 79.8074 86.77 80.0941 86.77C80.2141 86.77 80.3307 86.7967 80.4441 86.85C80.5574 86.8967 80.6141 86.9767 80.6141 87.09C80.6141 87.19 80.5874 87.2667 80.5341 87.32C80.4807 87.3733 80.4174 87.4 80.3441 87.4C80.2841 87.4 80.2174 87.3833 80.1441 87.35C80.0774 87.3167 79.9874 87.3 79.8741 87.3C79.6874 87.3 79.5007 87.3567 79.3141 87.47C79.1274 87.5767 78.9574 87.7233 78.8041 87.91C78.6507 88.0967 78.5274 88.3067 78.4341 88.54C78.3474 88.7667 78.3041 88.9967 78.3041 89.23V91.7C78.3041 91.78 78.2741 91.85 78.2141 91.91C78.1541 91.97 78.0841 92 78.0041 92ZM82.1317 91.7C82.1317 91.78 82.1017 91.85 82.0417 91.91C81.9817 91.97 81.9117 92 81.8317 92C81.7451 92 81.6717 91.97 81.6117 91.91C81.5584 91.85 81.5317 91.78 81.5317 91.7V87.1C81.5317 87.02 81.5584 86.95 81.6117 86.89C81.6717 86.83 81.7451 86.8 81.8317 86.8C81.9184 86.8 81.9884 86.83 82.0417 86.89C82.1017 86.95 82.1317 87.02 82.1317 87.1V91.7ZM81.8317 86.13C81.6917 86.13 81.5851 86.1 81.5117 86.04C81.4451 85.9733 81.4117 85.88 81.4117 85.76V85.66C81.4117 85.54 81.4484 85.45 81.5217 85.39C81.6017 85.3233 81.7084 85.29 81.8417 85.29C81.9684 85.29 82.0651 85.3233 82.1317 85.39C82.2051 85.45 82.2417 85.54 82.2417 85.66V85.76C82.2417 85.88 82.2051 85.9733 82.1317 86.04C82.0651 86.1 81.9651 86.13 81.8317 86.13ZM88.4504 89.44C88.4504 89.9467 88.3404 90.4033 88.1204 90.81C87.9004 91.21 87.6004 91.5267 87.2204 91.76C86.8404 91.9867 86.4071 92.1 85.9204 92.1C85.4471 92.1 85.0171 91.9867 84.6304 91.76C84.2504 91.5267 83.9471 91.21 83.7204 90.81C83.5004 90.4033 83.3904 89.9467 83.3904 89.44C83.3904 88.9267 83.5004 88.47 83.7204 88.07C83.9471 87.67 84.2504 87.3533 84.6304 87.12C85.0171 86.8867 85.4471 86.77 85.9204 86.77C86.4071 86.77 86.8404 86.8867 87.2204 87.12C87.6004 87.3533 87.9004 87.67 88.1204 88.07C88.3404 88.47 88.4504 88.9267 88.4504 89.44ZM87.8504 89.44C87.8504 89.0333 87.7671 88.6733 87.6004 88.36C87.4337 88.04 87.2037 87.79 86.9104 87.61C86.6237 87.4233 86.2937 87.33 85.9204 87.33C85.5604 87.33 85.2337 87.4233 84.9404 87.61C84.6471 87.79 84.4137 88.04 84.2404 88.36C84.0737 88.6733 83.9904 89.0333 83.9904 89.44C83.9904 89.8467 84.0737 90.2067 84.2404 90.52C84.4137 90.8333 84.6471 91.0833 84.9404 91.27C85.2337 91.45 85.5604 91.54 85.9204 91.54C86.2937 91.54 86.6237 91.45 86.9104 91.27C87.2037 91.0833 87.4337 90.8333 87.6004 90.52C87.7671 90.2067 87.8504 89.8467 87.8504 89.44ZM90.0255 92C89.9322 92 89.8589 91.97 89.8055 91.91C89.7522 91.85 89.7255 91.78 89.7255 91.7V87.22C89.7255 87.14 89.7522 87.07 89.8055 87.01C89.8655 86.95 89.9389 86.92 90.0255 86.92C90.1122 86.92 90.1822 86.95 90.2355 87.01C90.2955 87.07 90.3255 87.14 90.3255 87.22V88.72L90.1755 88.75C90.1955 88.5167 90.2522 88.2867 90.3455 88.06C90.4455 87.8267 90.5789 87.6133 90.7455 87.42C90.9122 87.2267 91.1089 87.07 91.3355 86.95C91.5689 86.83 91.8289 86.77 92.1155 86.77C92.2355 86.77 92.3522 86.7967 92.4655 86.85C92.5789 86.8967 92.6355 86.9767 92.6355 87.09C92.6355 87.19 92.6089 87.2667 92.5555 87.32C92.5022 87.3733 92.4389 87.4 92.3655 87.4C92.3055 87.4 92.2389 87.3833 92.1655 87.35C92.0989 87.3167 92.0089 87.3 91.8955 87.3C91.7089 87.3 91.5222 87.3567 91.3355 87.47C91.1489 87.5767 90.9789 87.7233 90.8255 87.91C90.6722 88.0967 90.5489 88.3067 90.4555 88.54C90.3689 88.7667 90.3255 88.9967 90.3255 89.23V91.7C90.3255 91.78 90.2955 91.85 90.2355 91.91C90.1755 91.97 90.1055 92 90.0255 92ZM100.498 84.6C100.584 84.6 100.654 84.63 100.708 84.69C100.768 84.7433 100.798 84.8133 100.798 84.9V91.7C100.798 91.78 100.768 91.85 100.708 91.91C100.648 91.97 100.578 92 100.498 92C100.411 92 100.338 91.97 100.278 91.91C100.224 91.85 100.198 91.78 100.198 91.7V90.51L100.368 90.37C100.368 90.5567 100.318 90.7533 100.218 90.96C100.118 91.16 99.9742 91.3467 99.7876 91.52C99.6076 91.6933 99.3942 91.8333 99.1476 91.94C98.9076 92.0467 98.6476 92.1 98.3676 92.1C97.9209 92.1 97.5176 91.9833 97.1576 91.75C96.8042 91.5167 96.5242 91.2 96.3176 90.8C96.1109 90.4 96.0076 89.9433 96.0076 89.43C96.0076 88.9233 96.1109 88.47 96.3176 88.07C96.5242 87.6633 96.8042 87.3467 97.1576 87.12C97.5109 86.8867 97.9109 86.77 98.3576 86.77C98.6309 86.77 98.8909 86.82 99.1376 86.92C99.3842 87.02 99.6009 87.1567 99.7876 87.33C99.9809 87.5033 100.131 87.7033 100.238 87.93C100.351 88.15 100.408 88.38 100.408 88.62L100.198 88.47V84.9C100.198 84.82 100.224 84.75 100.278 84.69C100.338 84.63 100.411 84.6 100.498 84.6ZM98.4176 91.54C98.7776 91.54 99.0909 91.45 99.3576 91.27C99.6309 91.0833 99.8442 90.8333 99.9976 90.52C100.158 90.2 100.238 89.8367 100.238 89.43C100.238 89.03 100.158 88.6733 99.9976 88.36C99.8442 88.04 99.6309 87.79 99.3576 87.61C99.0842 87.4233 98.7709 87.33 98.4176 87.33C98.0709 87.33 97.7576 87.4233 97.4776 87.61C97.2042 87.79 96.9876 88.04 96.8276 88.36C96.6742 88.6733 96.5976 89.03 96.5976 89.43C96.5976 89.83 96.6742 90.19 96.8276 90.51C96.9876 90.83 97.2042 91.0833 97.4776 91.27C97.7576 91.45 98.0709 91.54 98.4176 91.54ZM104.682 92.1C104.169 92.1 103.715 91.99 103.322 91.77C102.929 91.55 102.622 91.2433 102.402 90.85C102.182 90.4567 102.072 89.9967 102.072 89.47C102.072 88.9033 102.182 88.42 102.402 88.02C102.629 87.62 102.919 87.3133 103.272 87.1C103.632 86.88 104.012 86.77 104.412 86.77C104.705 86.77 104.989 86.8233 105.262 86.93C105.542 87.03 105.789 87.1833 106.002 87.39C106.222 87.59 106.395 87.8367 106.522 88.13C106.655 88.4233 106.729 88.7633 106.742 89.15C106.735 89.23 106.702 89.3 106.642 89.36C106.582 89.4133 106.512 89.44 106.432 89.44H102.422L102.302 88.9H106.242L106.112 89.02V88.82C106.085 88.5067 105.985 88.24 105.812 88.02C105.639 87.8 105.429 87.6333 105.182 87.52C104.935 87.4067 104.679 87.35 104.412 87.35C104.212 87.35 104.005 87.39 103.792 87.47C103.585 87.55 103.395 87.6767 103.222 87.85C103.055 88.0167 102.919 88.2333 102.812 88.5C102.705 88.76 102.652 89.07 102.652 89.43C102.652 89.8233 102.732 90.18 102.892 90.5C103.052 90.82 103.282 91.0733 103.582 91.26C103.889 91.4467 104.252 91.54 104.672 91.54C104.905 91.54 105.115 91.5067 105.302 91.44C105.489 91.3733 105.652 91.2867 105.792 91.18C105.932 91.0667 106.049 90.95 106.142 90.83C106.215 90.77 106.289 90.74 106.362 90.74C106.429 90.74 106.485 90.7667 106.532 90.82C106.585 90.8733 106.612 90.9333 106.612 91C106.612 91.08 106.579 91.15 106.512 91.21C106.312 91.45 106.052 91.66 105.732 91.84C105.412 92.0133 105.062 92.1 104.682 92.1ZM107.736 91.19C107.683 91.11 107.656 91.0333 107.656 90.96C107.663 90.88 107.706 90.8167 107.786 90.77C107.84 90.7233 107.9 90.7033 107.966 90.71C108.04 90.7167 108.106 90.75 108.166 90.81C108.346 91.0433 108.563 91.2333 108.816 91.38C109.076 91.52 109.383 91.59 109.736 91.59C109.923 91.59 110.106 91.56 110.286 91.5C110.473 91.4333 110.626 91.3367 110.746 91.21C110.866 91.0767 110.926 90.91 110.926 90.71C110.926 90.5033 110.866 90.3367 110.746 90.21C110.626 90.0833 110.47 89.9833 110.276 89.91C110.09 89.8367 109.89 89.7733 109.676 89.72C109.45 89.66 109.23 89.5933 109.016 89.52C108.803 89.44 108.613 89.3433 108.446 89.23C108.286 89.11 108.156 88.9667 108.056 88.8C107.956 88.6333 107.906 88.43 107.906 88.19C107.906 87.91 107.983 87.6633 108.136 87.45C108.29 87.2367 108.496 87.07 108.756 86.95C109.023 86.83 109.323 86.77 109.656 86.77C109.823 86.77 110.003 86.7933 110.196 86.84C110.39 86.88 110.58 86.95 110.766 87.05C110.953 87.15 111.12 87.2867 111.266 87.46C111.326 87.52 111.356 87.59 111.356 87.67C111.356 87.7433 111.323 87.81 111.256 87.87C111.203 87.91 111.14 87.93 111.066 87.93C111 87.93 110.943 87.9033 110.896 87.85C110.736 87.67 110.546 87.5333 110.326 87.44C110.106 87.3467 109.87 87.3 109.616 87.3C109.423 87.3 109.24 87.3333 109.066 87.4C108.9 87.46 108.76 87.5533 108.646 87.68C108.533 87.8067 108.476 87.9733 108.476 88.18C108.49 88.3733 108.556 88.53 108.676 88.65C108.803 88.77 108.966 88.87 109.166 88.95C109.373 89.03 109.603 89.1033 109.856 89.17C110.07 89.2233 110.273 89.2867 110.466 89.36C110.666 89.4333 110.84 89.5267 110.986 89.64C111.14 89.7467 111.26 89.8833 111.346 90.05C111.44 90.2167 111.486 90.4267 111.486 90.68C111.486 90.9733 111.403 91.2267 111.236 91.44C111.076 91.6533 110.86 91.8167 110.586 91.93C110.313 92.0433 110.01 92.1 109.676 92.1C109.316 92.1 108.966 92.03 108.626 91.89C108.293 91.75 107.996 91.5167 107.736 91.19ZM113.294 91.7C113.294 91.78 113.264 91.85 113.204 91.91C113.144 91.97 113.074 92 112.994 92C112.907 92 112.834 91.97 112.774 91.91C112.72 91.85 112.694 91.78 112.694 91.7V87.1C112.694 87.02 112.72 86.95 112.774 86.89C112.834 86.83 112.907 86.8 112.994 86.8C113.08 86.8 113.15 86.83 113.204 86.89C113.264 86.95 113.294 87.02 113.294 87.1V91.7ZM112.994 86.13C112.854 86.13 112.747 86.1 112.674 86.04C112.607 85.9733 112.574 85.88 112.574 85.76V85.66C112.574 85.54 112.61 85.45 112.684 85.39C112.764 85.3233 112.87 85.29 113.004 85.29C113.13 85.29 113.227 85.3233 113.294 85.39C113.367 85.45 113.404 85.54 113.404 85.66V85.76C113.404 85.88 113.367 85.9733 113.294 86.04C113.227 86.1 113.127 86.13 112.994 86.13ZM116.983 86.77C117.283 86.77 117.559 86.8233 117.813 86.93C118.066 87.03 118.286 87.1633 118.473 87.33C118.666 87.49 118.816 87.6633 118.923 87.85C119.029 88.03 119.083 88.2033 119.083 88.37L118.913 88.13V87.2C118.913 87.1133 118.939 87.04 118.993 86.98C119.053 86.92 119.126 86.89 119.213 86.89C119.306 86.89 119.379 86.92 119.433 86.98C119.486 87.04 119.513 87.1133 119.513 87.2V91.53C119.513 92.0633 119.403 92.5133 119.183 92.88C118.963 93.2467 118.663 93.5233 118.283 93.71C117.909 93.9033 117.483 94 117.002 94C116.769 94 116.523 93.97 116.263 93.91C116.009 93.85 115.789 93.7733 115.603 93.68C115.423 93.5867 115.323 93.49 115.303 93.39C115.249 93.33 115.223 93.27 115.223 93.21C115.229 93.1567 115.259 93.11 115.312 93.07C115.379 93.0233 115.449 93.0167 115.523 93.05C115.596 93.09 115.706 93.14 115.853 93.2C115.919 93.22 116.009 93.25 116.123 93.29C116.236 93.33 116.369 93.3633 116.523 93.39C116.683 93.4233 116.849 93.44 117.023 93.44C117.623 93.44 118.086 93.2667 118.413 92.92C118.746 92.58 118.913 92.13 118.913 91.57V90.61L119.023 90.64C118.963 90.88 118.863 91.09 118.723 91.27C118.589 91.45 118.429 91.6033 118.243 91.73C118.056 91.85 117.853 91.94 117.633 92C117.419 92.0667 117.206 92.1 116.993 92.1C116.533 92.1 116.119 91.9833 115.753 91.75C115.386 91.5167 115.093 91.2 114.873 90.8C114.659 90.4 114.553 89.9433 114.553 89.43C114.553 88.9233 114.659 88.47 114.873 88.07C115.093 87.6633 115.383 87.3467 115.743 87.12C116.109 86.8867 116.523 86.77 116.983 86.77ZM117.053 87.33C116.686 87.33 116.356 87.4233 116.063 87.61C115.776 87.79 115.549 88.04 115.382 88.36C115.223 88.6733 115.143 89.03 115.143 89.43C115.143 89.83 115.223 90.19 115.382 90.51C115.549 90.83 115.776 91.0833 116.063 91.27C116.356 91.45 116.686 91.54 117.053 91.54C117.419 91.54 117.746 91.45 118.033 91.27C118.319 91.09 118.546 90.8433 118.713 90.53C118.879 90.21 118.963 89.8433 118.963 89.43C118.963 89.0167 118.879 88.6533 118.713 88.34C118.546 88.02 118.319 87.7733 118.033 87.6C117.746 87.42 117.419 87.33 117.053 87.33ZM123.503 86.77C123.943 86.77 124.293 86.86 124.553 87.04C124.819 87.2133 125.009 87.4533 125.123 87.76C125.243 88.06 125.303 88.3933 125.303 88.76V91.7C125.303 91.78 125.273 91.85 125.213 91.91C125.153 91.97 125.083 92 125.003 92C124.909 92 124.836 91.97 124.783 91.91C124.729 91.85 124.703 91.78 124.703 91.7V88.79C124.703 88.5233 124.659 88.28 124.573 88.06C124.486 87.84 124.343 87.6633 124.143 87.53C123.949 87.3967 123.693 87.33 123.373 87.33C123.086 87.33 122.813 87.3967 122.553 87.53C122.299 87.6633 122.093 87.84 121.933 88.06C121.773 88.28 121.693 88.5233 121.693 88.79V91.7C121.693 91.78 121.663 91.85 121.603 91.91C121.543 91.97 121.473 92 121.393 92C121.299 92 121.226 91.97 121.173 91.91C121.119 91.85 121.093 91.78 121.093 91.7V87.22C121.093 87.14 121.119 87.07 121.173 87.01C121.233 86.95 121.306 86.92 121.393 86.92C121.479 86.92 121.549 86.95 121.603 87.01C121.663 87.07 121.693 87.14 121.693 87.22V88.06L121.463 88.42C121.476 88.2067 121.543 88.0033 121.663 87.81C121.789 87.61 121.949 87.4333 122.143 87.28C122.336 87.12 122.549 86.9967 122.783 86.91C123.023 86.8167 123.263 86.77 123.503 86.77Z" fill="#303030"/>
</svg>
